<svg id="Layer_1" enable-background="new 0 0 509.825 509.825" height="512" viewBox="0 0 509.825 509.825" width="512" xmlns="http://www.w3.org/2000/svg"><g id="XMLID_103_"><path id="XMLID_2760_" d="m89.825 165.094v101.399c9.171 4.585 155.83 77.915 165 82.5l15-52.575-15-52.575c-.353-.169-82.5-50.374-82.5-50.374s-81.369-27.835-82.5-28.375z" fill="#283366"/><path id="XMLID_502_" d="m89.825 419.223c9.316 0 15 45 15 45s-5.684 45-15 45h135l15-15 15 15 10-45-10-45-15 15-15-15c-12.517 0-128.589 0-135 0z" fill="#fff5f5"/><path id="XMLID_1558_" d="m419.825 419.223c-16.607 0-83.901 0-90 0l-15 15-15-15h-45v90h45l15-15 15 15h90c9.316 0 17.64-6.369 23.143-16.363 9.147-16.612 9.149-40.657 0-57.274-5.504-9.994-13.827-16.363-23.143-16.363z" fill="#d0cef1"/><ellipse id="XMLID_1560_" cx="89.825" cy="464.223" fill="#e4e4ff" rx="30" ry="45"/><g id="XMLID_1495_"><path id="XMLID_1556_" d="m479.913 286.793-15 7.68-15-7.671c0-16.659 0-119.553 0-136.027l15-28.553 15 14.234z" fill="#0a1833"/></g><circle id="XMLID_1554_" cx="464.825" cy="329.223" fill="#ffc649" r="45"/><g id="XMLID_500_"><path id="XMLID_501_" d="m299.913 418.912h30v90h-30z" fill="#ff5c5c"/></g><g id="XMLID_497_"><path id="XMLID_499_" d="m224.913 418.912h30v90h-30z" fill="#ff8659"/></g><path id="XMLID_2718_" d="m254.825 243.843v105.15c9.171-4.585 155.83-77.915 165-82.5 0-27.57 0-85.304 0-101.4-8.49 4.052-82.5 28.375-82.5 28.375s-73.924 46.282-82.5 50.375z" fill="#0a1833"/><path id="XMLID_2761_" d="m89.825 165.094c7.967 3.802 169.21 80.759 165 78.749l15-121.621-15-121.62c-14.15 6.754-240.674 114.867-254.825 121.62 9.561 4.564 80.98 38.65 89.825 42.872z" fill="#4d4d8c"/><path id="XMLID_2719_" d="m419.825 165.093c46.519-22.202 85.734-40.918 89.824-42.871l-254.824-121.62v243.241c3.141-1.499 160.925-76.805 165-78.75z" fill="#283366"/></g></svg>